<svg width="108" height="99" viewBox="0 0 108 99" fill="none" xmlns="http://www.w3.org/2000/svg">
<g filter="url(#filter0_f_278_124)">
<path d="M4 29.5918C4 15.7846 15.1929 4.5918 29 4.5918H79C92.8071 4.5918 104 15.7847 104 29.5918V69.1835C104 82.9906 92.8071 94.1835 79 94.1835H4V29.5918Z" fill="black" fill-opacity="0.5"/>
</g>
<path d="M4 29.5918C4 15.7846 15.1929 4.5918 29 4.5918H79C92.8071 4.5918 104 15.7847 104 29.5918V69.1835C104 82.9906 92.8071 94.1835 79 94.1835H4V29.5918Z" fill="#77AB59"/>
<path d="M80.5028 69.8361H76.7167V52.7986L77.2704 53.3523C77.6262 53.7075 78.1086 53.9068 78.6114 53.9064C79.1142 53.9059 79.5962 53.7058 79.9514 53.3499C80.3067 52.9941 80.506 52.5117 80.5055 52.0089C80.5051 51.5061 80.3049 51.0241 79.9491 50.6689L56.6763 27.4032C55.9663 26.6937 55.0037 26.2952 54 26.2952C52.9963 26.2952 52.0336 26.6937 51.3237 27.4032L28.0509 50.6689C27.696 51.0241 27.4967 51.5058 27.497 52.0079C27.4972 52.51 27.6969 52.9915 28.0521 53.3464C28.4073 53.7013 28.889 53.9005 29.3911 53.9003C29.8932 53.9001 30.3747 53.7004 30.7296 53.3452L31.2833 52.7986V69.8361H27.4972C26.9951 69.8361 26.5136 70.0356 26.1586 70.3906C25.8036 70.7456 25.6041 71.2271 25.6041 71.7292C25.6041 72.2312 25.8036 72.7127 26.1586 73.0678C26.5136 73.4228 26.9951 73.6222 27.4972 73.6222H80.5028C81.0049 73.6222 81.4864 73.4228 81.8414 73.0678C82.1964 72.7127 82.3959 72.2312 82.3959 71.7292C82.3959 71.2271 82.1964 70.7456 81.8414 70.3906C81.4864 70.0356 81.0049 69.8361 80.5028 69.8361ZM59.6792 69.8361H48.3208V58.4778C48.3208 58.2267 48.4205 57.986 48.598 57.8085C48.7756 57.631 49.0163 57.5312 49.2673 57.5312H58.7326C58.9837 57.5312 59.2244 57.631 59.4019 57.8085C59.5794 57.986 59.6792 58.2267 59.6792 58.4778V69.8361Z" fill="white"/>
<defs>
<filter id="filter0_f_278_124" x="0" y="0.591797" width="108" height="97.5918" filterUnits="userSpaceOnUse" color-interpolation-filters="sRGB">
<feFlood flood-opacity="0" result="BackgroundImageFix"/>
<feBlend mode="normal" in="SourceGraphic" in2="BackgroundImageFix" result="shape"/>
<feGaussianBlur stdDeviation="2" result="effect1_foregroundBlur_278_124"/>
</filter>
</defs>
</svg>
