<svg width="259" height="26" viewBox="0 0 259 26" fill="none" xmlns="http://www.w3.org/2000/svg">
<path d="M103.416 20.626C102.36 20.626 101.418 20.446 100.59 20.086C99.774 19.726 99.078 19.234 98.502 18.61C97.938 17.974 97.506 17.254 97.206 16.45C96.918 15.634 96.774 14.77 96.774 13.858C96.774 12.862 96.936 11.95 97.26 11.122C97.596 10.294 98.064 9.58 98.664 8.98C99.264 8.368 99.978 7.894 100.806 7.558C101.634 7.222 102.546 7.054 103.542 7.054C104.19 7.054 104.766 7.12 105.27 7.252C105.774 7.384 106.188 7.534 106.512 7.702C106.836 7.858 107.04 7.984 107.124 8.08L106.242 9.88C105.918 9.592 105.516 9.358 105.036 9.178C104.568 8.998 104.016 8.908 103.38 8.908C102.552 8.908 101.802 9.112 101.13 9.52C100.47 9.928 99.942 10.504 99.546 11.248C99.162 11.992 98.97 12.874 98.97 13.894C98.97 14.794 99.138 15.616 99.474 16.36C99.81 17.092 100.302 17.68 100.95 18.124C101.61 18.568 102.408 18.79 103.344 18.79C103.86 18.79 104.364 18.724 104.856 18.592C105.36 18.448 105.876 18.214 106.404 17.89L106.998 19.6C106.842 19.744 106.578 19.9 106.206 20.068C105.834 20.224 105.402 20.356 104.91 20.464C104.43 20.572 103.932 20.626 103.416 20.626ZM120.633 20.68C119.733 20.68 118.881 20.524 118.077 20.212C117.285 19.9 116.583 19.45 115.971 18.862C115.359 18.262 114.873 17.542 114.513 16.702C114.165 15.862 113.991 14.914 113.991 13.858C113.991 12.79 114.165 11.836 114.513 10.996C114.873 10.156 115.359 9.442 115.971 8.854C116.595 8.266 117.303 7.822 118.095 7.522C118.899 7.21 119.745 7.054 120.633 7.054C121.521 7.054 122.361 7.21 123.153 7.522C123.957 7.822 124.665 8.266 125.277 8.854C125.901 9.442 126.387 10.156 126.735 10.996C127.095 11.836 127.275 12.79 127.275 13.858C127.275 14.914 127.095 15.862 126.735 16.702C126.387 17.542 125.907 18.262 125.295 18.862C124.683 19.45 123.975 19.9 123.171 20.212C122.379 20.524 121.533 20.68 120.633 20.68ZM120.633 18.862C121.449 18.862 122.199 18.67 122.883 18.286C123.567 17.902 124.113 17.344 124.521 16.612C124.929 15.868 125.133 14.956 125.133 13.876C125.133 12.784 124.929 11.872 124.521 11.14C124.113 10.396 123.567 9.838 122.883 9.466C122.211 9.082 121.461 8.89 120.633 8.89C119.805 8.89 119.049 9.082 118.365 9.466C117.693 9.838 117.153 10.396 116.745 11.14C116.337 11.872 116.133 12.784 116.133 13.876C116.133 14.956 116.343 15.868 116.763 16.612C117.183 17.344 117.735 17.902 118.419 18.286C119.103 18.67 119.841 18.862 120.633 18.862ZM141.955 20.5L138.769 14.326L137.941 12.454L137.563 14.326L136.339 20.5H134.341L137.077 7.27H137.293L140.929 14.416L142.009 16.81L143.089 14.416L146.653 7.27H146.851L149.695 20.5H147.715L146.383 14.326L145.987 12.454L145.267 14.326L142.063 20.5H141.955ZM157.45 20.5V7.27H163.246V9.034H159.448V12.688H162.508V14.488H159.448V18.718H163.84V20.5H157.45ZM177.303 20.626C176.247 20.626 175.305 20.446 174.477 20.086C173.661 19.726 172.965 19.234 172.389 18.61C171.825 17.974 171.393 17.254 171.093 16.45C170.805 15.634 170.661 14.77 170.661 13.858C170.661 12.862 170.823 11.95 171.147 11.122C171.483 10.294 171.951 9.58 172.551 8.98C173.151 8.368 173.865 7.894 174.693 7.558C175.521 7.222 176.433 7.054 177.429 7.054C178.077 7.054 178.653 7.12 179.157 7.252C179.661 7.384 180.075 7.534 180.399 7.702C180.723 7.858 180.927 7.984 181.011 8.08L180.129 9.88C179.805 9.592 179.403 9.358 178.923 9.178C178.455 8.998 177.903 8.908 177.267 8.908C176.439 8.908 175.689 9.112 175.017 9.52C174.357 9.928 173.829 10.504 173.433 11.248C173.049 11.992 172.857 12.874 172.857 13.894C172.857 14.794 173.025 15.616 173.361 16.36C173.697 17.092 174.189 17.68 174.837 18.124C175.497 18.568 176.295 18.79 177.231 18.79C177.747 18.79 178.251 18.724 178.743 18.592C179.247 18.448 179.763 18.214 180.291 17.89L180.885 19.6C180.729 19.744 180.465 19.9 180.093 20.068C179.721 20.224 179.289 20.356 178.797 20.464C178.317 20.572 177.819 20.626 177.303 20.626ZM176.079 25.072C175.899 25.072 175.719 25.06 175.539 25.036C175.359 25.012 175.215 24.994 175.107 24.982L175.269 23.308C175.437 23.332 175.605 23.344 175.773 23.344C176.253 23.344 176.583 23.266 176.763 23.11C176.955 22.966 177.051 22.774 177.051 22.534C177.051 22.342 176.997 22.162 176.889 21.994C176.781 21.838 176.673 21.67 176.565 21.49C176.457 21.31 176.403 21.1 176.403 20.86C176.403 20.656 176.421 20.524 176.457 20.464C176.505 20.392 176.535 20.344 176.547 20.32L177.051 20.212L177.825 20.32C177.825 20.536 177.903 20.74 178.059 20.932C178.227 21.124 178.389 21.346 178.545 21.598C178.713 21.862 178.797 22.216 178.797 22.66C178.797 23.536 178.539 24.154 178.023 24.514C177.519 24.886 176.871 25.072 176.079 25.072ZM193.624 7.252H193.822L200.194 20.5H197.872L196.738 17.908H190.672L189.538 20.5H187.288L193.624 7.252ZM193.714 11.086L192.922 12.886L191.482 16.09H195.946L194.524 12.904L193.75 11.086H193.714ZM216.934 20.5L209.194 11.932L209.248 13.372V20.5H207.232V7.252H207.484L215.26 15.928L215.188 14.416V7.27H217.204V20.5H216.934ZM225.836 20.5V7.27H229.022C230.21 7.27 231.218 7.402 232.046 7.666C232.886 7.93 233.576 8.284 234.116 8.728C234.656 9.16 235.076 9.658 235.376 10.222C235.688 10.774 235.904 11.35 236.024 11.95C236.144 12.538 236.204 13.108 236.204 13.66C236.204 14.488 236.084 15.31 235.844 16.126C235.616 16.93 235.232 17.662 234.692 18.322C234.152 18.982 233.426 19.51 232.514 19.906C231.614 20.302 230.486 20.5 229.13 20.5H225.836ZM227.852 18.718H229.346C230.234 18.718 230.978 18.58 231.578 18.304C232.19 18.028 232.676 17.656 233.036 17.188C233.408 16.708 233.672 16.174 233.828 15.586C233.996 14.986 234.08 14.374 234.08 13.75C234.08 12.898 233.93 12.118 233.63 11.41C233.33 10.69 232.832 10.114 232.136 9.682C231.452 9.25 230.522 9.034 229.346 9.034H227.852V18.718ZM250.558 20.68C249.658 20.68 248.806 20.524 248.002 20.212C247.21 19.9 246.508 19.45 245.896 18.862C245.284 18.262 244.798 17.542 244.438 16.702C244.09 15.862 243.916 14.914 243.916 13.858C243.916 12.79 244.09 11.836 244.438 10.996C244.798 10.156 245.284 9.442 245.896 8.854C246.52 8.266 247.228 7.822 248.02 7.522C248.824 7.21 249.67 7.054 250.558 7.054C251.446 7.054 252.286 7.21 253.078 7.522C253.882 7.822 254.59 8.266 255.202 8.854C255.826 9.442 256.312 10.156 256.66 10.996C257.02 11.836 257.2 12.79 257.2 13.858C257.2 14.914 257.02 15.862 256.66 16.702C256.312 17.542 255.832 18.262 255.22 18.862C254.608 19.45 253.9 19.9 253.096 20.212C252.304 20.524 251.458 20.68 250.558 20.68ZM250.558 18.862C251.374 18.862 252.124 18.67 252.808 18.286C253.492 17.902 254.038 17.344 254.446 16.612C254.854 15.868 255.058 14.956 255.058 13.876C255.058 12.784 254.854 11.872 254.446 11.14C254.038 10.396 253.492 9.838 252.808 9.466C252.136 9.082 251.386 8.89 250.558 8.89C249.73 8.89 248.974 9.082 248.29 9.466C247.618 9.838 247.078 10.396 246.67 11.14C246.262 11.872 246.058 12.784 246.058 13.876C246.058 14.956 246.268 15.868 246.688 16.612C247.108 17.344 247.66 17.902 248.344 18.286C249.028 18.67 249.766 18.862 250.558 18.862Z" fill="#367F2D"/>
<rect y="10.5" width="72" height="2" fill="#367F2D"/>
</svg>
