<svg width="108" height="99" viewBox="0 0 108 99" fill="none" xmlns="http://www.w3.org/2000/svg">
<g filter="url(#filter0_f_281_59)">
<path d="M4 29.1833C4 15.3762 15.1929 4.18335 29 4.18335H79C92.8071 4.18335 104 15.3762 104 29.1833V69.7187C104 83.5259 92.8071 94.7187 79 94.7187H4V29.1833Z" fill="black" fill-opacity="0.5"/>
</g>
<path d="M4 29.1833C4 15.3762 15.1929 4.18335 29 4.18335H79C92.8071 4.18335 104 15.3762 104 29.1833V69.7187C104 83.5259 92.8071 94.7187 79 94.7187H4V29.1833Z" fill="#77AB59"/>
<path d="M78.1273 63.508C79.4354 60.7664 80.0772 57.749 79.9995 54.7063C79.9218 51.6637 79.1268 48.6838 77.6805 46.014C76.2342 43.3443 74.1784 41.0617 71.6839 39.3561C69.1894 37.6505 66.3281 36.5709 63.3378 36.2071C62.3428 33.8694 60.8963 31.7557 59.0828 29.9899C57.2694 28.2242 55.1256 26.8418 52.7768 25.9237C50.4281 25.0056 47.9218 24.5704 45.4045 24.6434C42.8872 24.7164 40.4097 25.2962 38.1169 26.3488C35.8242 27.4015 33.7623 28.9058 32.0521 30.7738C30.3418 32.6418 29.0176 34.8358 28.1569 37.2273C27.2962 39.6189 26.9164 42.16 27.0396 44.7018C27.1629 47.2436 27.7868 49.7349 28.8747 52.03L27.1544 57.9388C26.962 58.5984 26.9492 59.2982 27.1172 59.9646C27.2851 60.631 27.6277 61.2393 28.1089 61.7256C28.5901 62.2119 29.1921 62.5581 29.8515 62.7278C30.511 62.8976 31.2035 62.8846 31.8563 62.6902L37.7035 60.9518C39.581 61.8633 41.5939 62.4571 43.6619 62.7093C44.6665 65.0882 46.1382 67.2364 47.9877 69.0242C49.8373 70.812 52.0264 72.2022 54.4228 73.1108C56.8191 74.0194 59.3729 74.4275 61.9297 74.3104C64.4866 74.1934 66.9934 73.5536 69.2986 72.4297L75.1458 74.1682C75.7983 74.3623 76.4905 74.3753 77.1497 74.2056C77.8088 74.0359 78.4106 73.69 78.8917 73.204C79.3728 72.7181 79.7155 72.1102 79.8837 71.4442C80.0519 70.7782 80.0395 70.0786 79.8477 69.4192L78.1273 63.508ZM74.2821 63.8595L76.2177 70.5L69.6488 68.5464C69.1742 68.4074 68.6647 68.4615 68.229 68.697C64.743 70.578 60.6679 71.0088 56.8721 69.8974C53.0764 68.786 49.8603 66.2205 47.9094 62.7476C50.5014 62.4742 53.0096 61.6625 55.2765 60.3633C57.5434 59.0642 59.5202 57.3056 61.0828 55.198C62.6454 53.0904 63.7602 50.6792 64.3571 48.1156C64.9541 45.5521 65.0203 42.8916 64.5518 40.3009C66.8101 40.8389 68.916 41.894 70.7068 43.3849C72.4977 44.8758 73.9255 46.7626 74.8802 48.8997C75.8349 51.0367 76.291 53.3669 76.2131 55.7103C76.1352 58.0537 75.5256 60.3477 74.4311 62.4152C74.1955 62.8581 74.142 63.377 74.2821 63.8595Z" fill="white"/>
<defs>
<filter id="filter0_f_281_59" x="0" y="0.18335" width="108" height="98.5354" filterUnits="userSpaceOnUse" color-interpolation-filters="sRGB">
<feFlood flood-opacity="0" result="BackgroundImageFix"/>
<feBlend mode="normal" in="SourceGraphic" in2="BackgroundImageFix" result="shape"/>
<feGaussianBlur stdDeviation="2" result="effect1_foregroundBlur_281_59"/>
</filter>
</defs>
</svg>
