<svg width="249" height="27" viewBox="0 0 249 27" fill="none" xmlns="http://www.w3.org/2000/svg">
<path d="M0.805362 25.3256C0.551001 25.4331 0.431944 25.7264 0.539439 25.9808C0.646935 26.2352 0.940278 26.3542 1.19464 26.2467L0.805362 25.3256ZM249 25.7862L245.496 21.1972L243.274 26.5259L249 25.7862ZM1 25.7862L1.19464 26.2467C2.08059 25.8723 2.96901 25.5018 3.85984 25.1352L3.66956 24.6728L3.47928 24.2104C2.58553 24.5782 1.69422 24.95 0.805362 25.3256L1 25.7862ZM9.0409 22.5213L9.22244 22.9872C11.0138 22.2891 12.8146 21.6068 14.6246 20.9403L14.4518 20.4711L14.279 20.0019C12.4632 20.6705 10.6566 21.3551 8.85936 22.0554L9.0409 22.5213ZM19.9001 18.5227L20.064 18.995C21.8802 18.3646 23.7053 17.75 25.5389 17.1515L25.3838 16.6762L25.2286 16.2008C23.3891 16.8013 21.5581 17.4178 19.7361 18.0503L19.9001 18.5227ZM30.9009 14.9319L31.0472 15.41C32.8854 14.8476 34.732 14.3011 36.5867 13.7709L36.4492 13.2902L36.3118 12.8095C34.4512 13.3413 32.5987 13.8895 30.7546 14.4538L30.9009 14.9319ZM42.0272 11.7511L42.1558 12.2343C44.0134 11.7401 45.8788 11.2621 47.7518 10.8005L47.6321 10.315L47.5125 9.82951C45.6335 10.2926 43.7622 10.7721 41.8987 11.2679L42.0272 11.7511ZM53.2631 8.98169L53.3739 9.46927C55.2482 9.04355 57.1297 8.63414 59.0184 8.24124L58.9165 7.75172L58.8147 7.2622C56.9201 7.65634 55.0326 8.06704 53.1524 8.49411L53.2631 8.98169ZM64.5929 6.62459L64.6858 7.11588C66.5741 6.75873 68.4692 6.418 70.3708 6.09389L70.2868 5.60099L70.2028 5.1081C68.2952 5.43324 66.3942 5.77503 64.5 6.1333L64.5929 6.62459ZM76.0005 4.68019L76.0755 5.17452C77.9754 4.8859 79.8816 4.61381 81.7938 4.3584L81.7276 3.8628L81.6614 3.3672C79.7432 3.6234 77.8311 3.89635 75.9254 4.18586L76.0005 4.68019ZM87.4701 3.14818L87.5274 3.64489C89.4365 3.42465 91.3515 3.22102 93.272 3.03415L93.2236 2.5365L93.1752 2.03885C91.2487 2.22629 89.3278 2.43056 87.4128 2.65148L87.4701 3.14818ZM98.9872 2.02746L99.0268 2.52589C100.943 2.37383 102.864 2.23842 104.791 2.11984L104.76 1.62079L104.729 1.12173C102.797 1.24067 100.87 1.37649 98.9477 1.52903L98.9872 2.02746ZM110.537 1.31638L110.559 1.8159C112.479 1.73171 114.404 1.66421 116.334 1.61356L116.321 1.11374L116.308 0.613909C114.372 0.664705 112.441 0.732409 110.515 0.816865L110.537 1.31638ZM122.105 1.01263L122.11 1.51261C123.072 1.50421 124.035 1.5 125 1.5V1V0.5C124.033 0.5 123.066 0.504223 122.101 0.51265L122.105 1.01263ZM125 1V1.5C125.965 1.5 126.928 1.50421 127.89 1.51261L127.895 1.01263L127.899 0.51265C126.934 0.504223 125.967 0.5 125 0.5V1ZM133.679 1.11374L133.666 1.61356C135.596 1.66421 137.521 1.73171 139.441 1.8159L139.463 1.31638L139.485 0.816864C137.559 0.732409 135.628 0.664704 133.692 0.613909L133.679 1.11374ZM145.24 1.62079L145.209 2.11984C147.136 2.23842 149.057 2.37383 150.973 2.52589L151.013 2.02746L151.052 1.52903C149.13 1.37649 147.203 1.24067 145.271 1.12173L145.24 1.62079ZM156.776 2.5365L156.728 3.03415C158.649 3.22102 160.563 3.42465 162.473 3.64489L162.53 3.14818L162.587 2.65147C160.672 2.43056 158.751 2.22629 156.825 2.03885L156.776 2.5365ZM168.272 3.8628L168.206 4.3584C170.118 4.6138 172.025 4.8859 173.924 5.17452L174 4.68019L174.075 4.18586C172.169 3.89634 170.257 3.6234 168.339 3.3672L168.272 3.8628ZM179.713 5.60099L179.629 6.09388C181.531 6.418 183.426 6.75873 185.314 7.11588L185.407 6.62459L185.5 6.1333C183.606 5.77502 181.705 5.43323 179.797 5.1081L179.713 5.60099ZM191.083 7.75172L190.982 8.24124C192.87 8.63414 194.752 9.04354 196.626 9.46927L196.737 8.98169L196.848 8.4941C194.967 8.06704 193.08 7.65634 191.185 7.2622L191.083 7.75172ZM202.368 10.315L202.248 10.8005C204.121 11.2621 205.987 11.7401 207.844 12.2343L207.973 11.7511L208.101 11.2679C206.238 10.7721 204.366 10.2926 202.488 9.82951L202.368 10.315ZM213.551 13.2902L213.413 13.7709C215.268 14.3011 217.115 14.8476 218.953 15.41L219.099 14.9319L219.245 14.4538C217.401 13.8895 215.549 13.3413 213.688 12.8095L213.551 13.2902ZM224.616 16.6762L224.461 17.1515C226.295 17.75 228.12 18.3646 229.936 18.995L230.1 18.5227L230.264 18.0503C228.442 17.4178 226.611 16.8013 224.771 16.2008L224.616 16.6762ZM235.548 20.4711L235.375 20.9403C237.185 21.6068 238.986 22.2891 240.778 22.9872L240.959 22.5213L241.141 22.0554C239.343 21.3551 237.537 20.6705 235.721 20.0019L235.548 20.4711ZM0.805362 25.3256C0.551001 25.4331 0.431944 25.7264 0.539439 25.9808C0.646935 26.2352 0.940278 26.3542 1.19464 26.2467L0.805362 25.3256ZM249 25.7862L245.496 21.1972L243.274 26.5259L249 25.7862ZM1 25.7862L1.19464 26.2467C2.08059 25.8723 2.96901 25.5018 3.85984 25.1352L3.66956 24.6728L3.47928 24.2104C2.58553 24.5782 1.69422 24.95 0.805362 25.3256L1 25.7862ZM9.0409 22.5213L9.22244 22.9872C11.0138 22.2891 12.8146 21.6068 14.6246 20.9403L14.4518 20.4711L14.279 20.0019C12.4632 20.6705 10.6566 21.3551 8.85936 22.0554L9.0409 22.5213ZM19.9001 18.5227L20.064 18.995C21.8802 18.3646 23.7053 17.75 25.5389 17.1515L25.3838 16.6762L25.2286 16.2008C23.3891 16.8013 21.5581 17.4178 19.7361 18.0503L19.9001 18.5227ZM30.9009 14.9319L31.0472 15.41C32.8854 14.8476 34.732 14.3011 36.5867 13.7709L36.4492 13.2902L36.3118 12.8095C34.4512 13.3413 32.5987 13.8895 30.7546 14.4538L30.9009 14.9319ZM42.0272 11.7511L42.1558 12.2343C44.0134 11.7401 45.8788 11.2621 47.7518 10.8005L47.6321 10.315L47.5125 9.82951C45.6335 10.2926 43.7622 10.7721 41.8987 11.2679L42.0272 11.7511ZM53.2631 8.98169L53.3739 9.46927C55.2482 9.04355 57.1297 8.63414 59.0184 8.24124L58.9165 7.75172L58.8147 7.2622C56.9201 7.65634 55.0326 8.06704 53.1524 8.49411L53.2631 8.98169ZM64.5929 6.62459L64.6858 7.11588C66.5741 6.75873 68.4692 6.418 70.3708 6.09389L70.2868 5.60099L70.2028 5.1081C68.2952 5.43324 66.3942 5.77503 64.5 6.1333L64.5929 6.62459ZM76.0005 4.68019L76.0755 5.17452C77.9754 4.8859 79.8816 4.61381 81.7938 4.3584L81.7276 3.8628L81.6614 3.3672C79.7432 3.6234 77.8311 3.89635 75.9254 4.18586L76.0005 4.68019ZM87.4701 3.14818L87.5274 3.64489C89.4365 3.42465 91.3515 3.22102 93.272 3.03415L93.2236 2.5365L93.1752 2.03885C91.2487 2.22629 89.3278 2.43056 87.4128 2.65148L87.4701 3.14818ZM98.9872 2.02746L99.0268 2.52589C100.943 2.37383 102.864 2.23842 104.791 2.11984L104.76 1.62079L104.729 1.12173C102.797 1.24067 100.87 1.37649 98.9477 1.52903L98.9872 2.02746ZM110.537 1.31638L110.559 1.8159C112.479 1.73171 114.404 1.66421 116.334 1.61356L116.321 1.11374L116.308 0.613909C114.372 0.664705 112.441 0.732409 110.515 0.816865L110.537 1.31638ZM122.105 1.01263L122.11 1.51261C123.072 1.50421 124.035 1.5 125 1.5V1V0.5C124.033 0.5 123.066 0.504223 122.101 0.51265L122.105 1.01263ZM125 1V1.5C125.965 1.5 126.928 1.50421 127.89 1.51261L127.895 1.01263L127.899 0.51265C126.934 0.504223 125.967 0.5 125 0.5V1ZM133.679 1.11374L133.666 1.61356C135.596 1.66421 137.521 1.73171 139.441 1.8159L139.463 1.31638L139.485 0.816864C137.559 0.732409 135.628 0.664704 133.692 0.613909L133.679 1.11374ZM145.24 1.62079L145.209 2.11984C147.136 2.23842 149.057 2.37383 150.973 2.52589L151.013 2.02746L151.052 1.52903C149.13 1.37649 147.203 1.24067 145.271 1.12173L145.24 1.62079ZM156.776 2.5365L156.728 3.03415C158.649 3.22102 160.563 3.42465 162.473 3.64489L162.53 3.14818L162.587 2.65147C160.672 2.43056 158.751 2.22629 156.825 2.03885L156.776 2.5365ZM168.272 3.8628L168.206 4.3584C170.118 4.6138 172.025 4.8859 173.924 5.17452L174 4.68019L174.075 4.18586C172.169 3.89634 170.257 3.6234 168.339 3.3672L168.272 3.8628ZM179.713 5.60099L179.629 6.09388C181.531 6.418 183.426 6.75873 185.314 7.11588L185.407 6.62459L185.5 6.1333C183.606 5.77502 181.705 5.43323 179.797 5.1081L179.713 5.60099ZM191.083 7.75172L190.982 8.24124C192.87 8.63414 194.752 9.04354 196.626 9.46927L196.737 8.98169L196.848 8.4941C194.967 8.06704 193.08 7.65634 191.185 7.2622L191.083 7.75172ZM202.368 10.315L202.248 10.8005C204.121 11.2621 205.987 11.7401 207.844 12.2343L207.973 11.7511L208.101 11.2679C206.238 10.7721 204.366 10.2926 202.488 9.82951L202.368 10.315ZM213.551 13.2902L213.413 13.7709C215.268 14.3011 217.115 14.8476 218.953 15.41L219.099 14.9319L219.245 14.4538C217.401 13.8895 215.549 13.3413 213.688 12.8095L213.551 13.2902ZM224.616 16.6762L224.461 17.1515C226.295 17.75 228.12 18.3646 229.936 18.995L230.1 18.5227L230.264 18.0503C228.442 17.4178 226.611 16.8013 224.771 16.2008L224.616 16.6762ZM235.548 20.4711L235.375 20.9403C237.185 21.6068 238.986 22.2891 240.778 22.9872L240.959 22.5213L241.141 22.0554C239.343 21.3551 237.537 20.6705 235.721 20.0019L235.548 20.4711Z" fill="#AFAFAF"/>
</svg>
