<svg width="249" height="27" viewBox="0 0 249 27" fill="none" xmlns="http://www.w3.org/2000/svg">
<path d="M0.805362 1.46054C0.551001 1.35304 0.431944 1.0597 0.53944 0.805341C0.646935 0.55098 0.940278 0.431923 1.19464 0.539419L0.805362 1.46054ZM249 0.999979L245.496 5.58891L243.274 0.260264L249 0.999979ZM1 0.999979L1.19464 0.539419C2.08059 0.913834 2.96901 1.28436 3.85984 1.65096L3.66956 2.11334L3.47928 2.57572C2.58553 2.20791 1.69422 1.83618 0.805362 1.46054L1 0.999979ZM9.0409 4.26483L9.22244 3.79895C11.0138 4.497 12.8146 5.17935 14.6246 5.8458L14.4518 6.315L14.279 6.78421C12.4632 6.1156 10.6566 5.43103 8.85936 4.73071L9.0409 4.26483ZM19.9001 8.26347L20.064 7.79112C21.8802 8.42157 23.7053 9.03615 25.5389 9.63465L25.3838 10.11L25.2286 10.5853C23.3891 9.98487 21.5581 9.36831 19.7361 8.73582L19.9001 8.26347ZM30.9009 11.8542L31.0472 11.3761C32.8854 11.9386 34.732 12.485 36.5867 13.0152L36.4492 13.4959L36.3118 13.9767C34.4512 13.4448 32.5987 12.8966 30.7546 12.3323L30.9009 11.8542ZM42.0272 15.035L42.1558 14.5518C44.0134 15.046 45.8788 15.524 47.7518 15.9857L47.6321 16.4711L47.5125 16.9566C45.6335 16.4935 43.7622 16.014 41.8987 15.5182L42.0272 15.035ZM53.2631 17.8044L53.3739 17.3169C55.2482 17.7426 57.1297 18.152 59.0184 18.5449L58.9165 19.0344L58.8147 19.5239C56.9201 19.1298 55.0326 18.7191 53.1524 18.292L53.2631 17.8044ZM64.5929 20.1615L64.6858 19.6703C66.5741 20.0274 68.4692 20.3681 70.3709 20.6922L70.2868 21.1851L70.2028 21.678C68.2952 21.3529 66.3942 21.0111 64.5 20.6528L64.5929 20.1615ZM76.0005 22.1059L76.0755 21.6116C77.9754 21.9002 79.8816 22.1723 81.7938 22.4277L81.7276 22.9233L81.6614 23.4189C79.7432 23.1627 77.8311 22.8898 75.9254 22.6003L76.0005 22.1059ZM87.4701 23.638L87.5274 23.1412C89.4365 23.3615 91.3515 23.5651 93.272 23.752L93.2236 24.2496L93.1752 24.7473C91.2487 24.5598 89.3278 24.3556 87.4128 24.1347L87.4701 23.638ZM98.9872 24.7587L99.0268 24.2602C100.943 24.4123 102.864 24.5477 104.791 24.6663L104.76 25.1653L104.729 25.6644C102.797 25.5455 100.87 25.4096 98.9477 25.2571L98.9872 24.7587ZM110.537 25.4697L110.559 24.9702C112.479 25.0544 114.404 25.1219 116.334 25.1726L116.321 25.6724L116.308 26.1722C114.372 26.1214 112.441 26.0537 110.515 25.9693L110.537 25.4697ZM122.105 25.7735L122.11 25.2735C123.072 25.2819 124.035 25.2861 125 25.2861V25.7861V26.2861C124.033 26.2861 123.066 26.2819 122.101 26.2735L122.105 25.7735ZM125 25.7861V25.2861C125.965 25.2861 126.928 25.2819 127.89 25.2735L127.895 25.7735L127.899 26.2735C126.934 26.2819 125.967 26.2861 125 26.2861V25.7861ZM133.679 25.6724L133.666 25.1726C135.596 25.1219 137.521 25.0544 139.441 24.9702L139.463 25.4697L139.485 25.9693C137.559 26.0537 135.628 26.1214 133.692 26.1722L133.679 25.6724ZM145.24 25.1653L145.209 24.6663C147.136 24.5477 149.057 24.4123 150.973 24.2602L151.013 24.7587L151.052 25.2571C149.13 25.4096 147.203 25.5455 145.271 25.6644L145.24 25.1653ZM156.776 24.2496L156.728 23.752C158.649 23.5651 160.563 23.3615 162.473 23.1412L162.53 23.638L162.587 24.1347C160.672 24.3556 158.751 24.5598 156.825 24.7473L156.776 24.2496ZM168.272 22.9233L168.206 22.4277C170.118 22.1723 172.025 21.9002 173.924 21.6116L174 22.1059L174.075 22.6003C172.169 22.8898 170.257 23.1627 168.339 23.4189L168.272 22.9233ZM179.713 21.1851L179.629 20.6922C181.531 20.3681 183.426 20.0274 185.314 19.6703L185.407 20.1615L185.5 20.6528C183.606 21.0111 181.705 21.3529 179.797 21.678L179.713 21.1851ZM191.083 19.0344L190.982 18.5449C192.87 18.152 194.752 17.7426 196.626 17.3169L196.737 17.8044L196.848 18.292C194.967 18.7191 193.08 19.1298 191.185 19.5239L191.083 19.0344ZM202.368 16.4711L202.248 15.9857C204.121 15.524 205.987 15.046 207.844 14.5518L207.973 15.035L208.101 15.5182C206.238 16.014 204.366 16.4935 202.488 16.9566L202.368 16.4711ZM213.551 13.4959L213.413 13.0152C215.268 12.485 217.115 11.9386 218.953 11.3761L219.099 11.8542L219.245 12.3323C217.401 12.8966 215.549 13.4448 213.688 13.9767L213.551 13.4959ZM224.616 10.11L224.461 9.63465C226.295 9.03615 228.12 8.42158 229.936 7.79112L230.1 8.26347L230.264 8.73582C228.442 9.36831 226.611 9.98487 224.771 10.5853L224.616 10.11ZM235.548 6.31501L235.375 5.8458C237.185 5.17935 238.986 4.497 240.778 3.79895L240.959 4.26483L241.141 4.73071C239.343 5.43103 237.537 6.1156 235.721 6.78421L235.548 6.31501ZM0.805362 1.46054C0.551001 1.35304 0.431944 1.0597 0.53944 0.805341C0.646935 0.55098 0.940278 0.431923 1.19464 0.539419L0.805362 1.46054ZM249 0.999979L245.496 5.58891L243.274 0.260264L249 0.999979ZM1 0.999979L1.19464 0.539419C2.08059 0.913834 2.96901 1.28436 3.85984 1.65096L3.66956 2.11334L3.47928 2.57572C2.58553 2.20791 1.69422 1.83618 0.805362 1.46054L1 0.999979ZM9.0409 4.26483L9.22244 3.79895C11.0138 4.497 12.8146 5.17935 14.6246 5.8458L14.4518 6.315L14.279 6.78421C12.4632 6.1156 10.6566 5.43103 8.85936 4.73071L9.0409 4.26483ZM19.9001 8.26347L20.064 7.79112C21.8802 8.42157 23.7053 9.03615 25.5389 9.63465L25.3838 10.11L25.2286 10.5853C23.3891 9.98487 21.5581 9.36831 19.7361 8.73582L19.9001 8.26347ZM30.9009 11.8542L31.0472 11.3761C32.8854 11.9386 34.732 12.485 36.5867 13.0152L36.4492 13.4959L36.3118 13.9767C34.4512 13.4448 32.5987 12.8966 30.7546 12.3323L30.9009 11.8542ZM42.0272 15.035L42.1558 14.5518C44.0134 15.046 45.8788 15.524 47.7518 15.9857L47.6321 16.4711L47.5125 16.9566C45.6335 16.4935 43.7622 16.014 41.8987 15.5182L42.0272 15.035ZM53.2631 17.8044L53.3739 17.3169C55.2482 17.7426 57.1297 18.152 59.0184 18.5449L58.9165 19.0344L58.8147 19.5239C56.9201 19.1298 55.0326 18.7191 53.1524 18.292L53.2631 17.8044ZM64.5929 20.1615L64.6858 19.6703C66.5741 20.0274 68.4692 20.3681 70.3709 20.6922L70.2868 21.1851L70.2028 21.678C68.2952 21.3529 66.3942 21.0111 64.5 20.6528L64.5929 20.1615ZM76.0005 22.1059L76.0755 21.6116C77.9754 21.9002 79.8816 22.1723 81.7938 22.4277L81.7276 22.9233L81.6614 23.4189C79.7432 23.1627 77.8311 22.8898 75.9254 22.6003L76.0005 22.1059ZM87.4701 23.638L87.5274 23.1412C89.4365 23.3615 91.3515 23.5651 93.272 23.752L93.2236 24.2496L93.1752 24.7473C91.2487 24.5598 89.3278 24.3556 87.4128 24.1347L87.4701 23.638ZM98.9872 24.7587L99.0268 24.2602C100.943 24.4123 102.864 24.5477 104.791 24.6663L104.76 25.1653L104.729 25.6644C102.797 25.5455 100.87 25.4096 98.9477 25.2571L98.9872 24.7587ZM110.537 25.4697L110.559 24.9702C112.479 25.0544 114.404 25.1219 116.334 25.1726L116.321 25.6724L116.308 26.1722C114.372 26.1214 112.441 26.0537 110.515 25.9693L110.537 25.4697ZM122.105 25.7735L122.11 25.2735C123.072 25.2819 124.035 25.2861 125 25.2861V25.7861V26.2861C124.033 26.2861 123.066 26.2819 122.101 26.2735L122.105 25.7735ZM125 25.7861V25.2861C125.965 25.2861 126.928 25.2819 127.89 25.2735L127.895 25.7735L127.899 26.2735C126.934 26.2819 125.967 26.2861 125 26.2861V25.7861ZM133.679 25.6724L133.666 25.1726C135.596 25.1219 137.521 25.0544 139.441 24.9702L139.463 25.4697L139.485 25.9693C137.559 26.0537 135.628 26.1214 133.692 26.1722L133.679 25.6724ZM145.24 25.1653L145.209 24.6663C147.136 24.5477 149.057 24.4123 150.973 24.2602L151.013 24.7587L151.052 25.2571C149.13 25.4096 147.203 25.5455 145.271 25.6644L145.24 25.1653ZM156.776 24.2496L156.728 23.752C158.649 23.5651 160.563 23.3615 162.473 23.1412L162.53 23.638L162.587 24.1347C160.672 24.3556 158.751 24.5598 156.825 24.7473L156.776 24.2496ZM168.272 22.9233L168.206 22.4277C170.118 22.1723 172.025 21.9002 173.924 21.6116L174 22.1059L174.075 22.6003C172.169 22.8898 170.257 23.1627 168.339 23.4189L168.272 22.9233ZM179.713 21.1851L179.629 20.6922C181.531 20.3681 183.426 20.0274 185.314 19.6703L185.407 20.1615L185.5 20.6528C183.606 21.0111 181.705 21.3529 179.797 21.678L179.713 21.1851ZM191.083 19.0344L190.982 18.5449C192.87 18.152 194.752 17.7426 196.626 17.3169L196.737 17.8044L196.848 18.292C194.967 18.7191 193.08 19.1298 191.185 19.5239L191.083 19.0344ZM202.368 16.4711L202.248 15.9857C204.121 15.524 205.987 15.046 207.844 14.5518L207.973 15.035L208.101 15.5182C206.238 16.014 204.366 16.4935 202.488 16.9566L202.368 16.4711ZM213.551 13.4959L213.413 13.0152C215.268 12.485 217.115 11.9386 218.953 11.3761L219.099 11.8542L219.245 12.3323C217.401 12.8966 215.549 13.4448 213.688 13.9767L213.551 13.4959ZM224.616 10.11L224.461 9.63465C226.295 9.03615 228.12 8.42158 229.936 7.79112L230.1 8.26347L230.264 8.73582C228.442 9.36831 226.611 9.98487 224.771 10.5853L224.616 10.11ZM235.548 6.31501L235.375 5.8458C237.185 5.17935 238.986 4.497 240.778 3.79895L240.959 4.26483L241.141 4.73071C239.343 5.43103 237.537 6.1156 235.721 6.78421L235.548 6.31501Z" fill="#AFAFAF"/>
</svg>
