<svg width="108" height="98" viewBox="0 0 108 98" fill="none" xmlns="http://www.w3.org/2000/svg">
<g filter="url(#filter0_f_281_43)">
<path d="M4 29.1938C4 15.3867 15.1929 4.19385 29 4.19385H79C92.8071 4.19385 104 15.3867 104 29.1938V68.7856C104 82.5927 92.8071 93.7855 79 93.7855H4V29.1938Z" fill="black" fill-opacity="0.5"/>
</g>
<path d="M4 29.1938C4 15.3867 15.1929 4.19385 29 4.19385H79C92.8071 4.19385 104 15.3867 104 29.1938V68.7856C104 82.5927 92.8071 93.7855 79 93.7855H4V29.1938Z" fill="#77AB59"/>
<path d="M81.5061 33.4703C81.2336 33.3002 80.9222 33.2023 80.6014 33.1857C80.2806 33.1692 79.9608 33.2345 79.6722 33.3757C69.5136 38.3449 62.2585 36.0165 54.5892 33.5602C46.5224 30.9928 38.193 28.3307 26.6666 33.9578C26.3483 34.1132 26.0799 34.3548 25.8921 34.6552C25.7043 34.9555 25.6045 35.3026 25.6041 35.6568V64.0361C25.6041 64.3573 25.6858 64.6732 25.8415 64.9541C25.9972 65.2351 26.2218 65.4717 26.4942 65.6419C26.7667 65.8121 27.0779 65.9101 27.3986 65.9269C27.7194 65.9436 28.0391 65.8784 28.3278 65.7375C38.4864 60.7682 45.7415 63.0967 53.4226 65.5529C57.9754 67.0082 62.6134 68.4919 67.8572 68.4919C71.9012 68.4919 76.312 67.6116 81.3239 65.1648C81.6422 65.0094 81.9106 64.7678 82.0984 64.4674C82.2862 64.1671 82.386 63.8201 82.3864 63.4658V35.0865C82.3893 34.7645 82.3099 34.4471 82.1559 34.1642C82.0018 33.8814 81.7782 33.6426 81.5061 33.4703ZM35.0694 55.2405C35.0694 55.7426 34.87 56.2241 34.515 56.5791C34.1599 56.9341 33.6784 57.1335 33.1764 57.1335C32.6743 57.1335 32.1928 56.9341 31.8378 56.5791C31.4827 56.2241 31.2833 55.7426 31.2833 55.2405V40.096C31.2833 39.594 31.4827 39.1124 31.8378 38.7574C32.1928 38.4024 32.6743 38.203 33.1764 38.203C33.6784 38.203 34.1599 38.4024 34.515 38.7574C34.87 39.1124 35.0694 39.594 35.0694 40.096V55.2405ZM54 57.1335C52.5023 57.1335 51.0383 56.6894 49.7931 55.8574C48.5478 55.0253 47.5773 53.8427 47.0042 52.4591C46.431 51.0754 46.2811 49.5529 46.5733 48.084C46.8654 46.6152 47.5866 45.2659 48.6456 44.2069C49.7046 43.1479 51.0539 42.4268 52.5227 42.1346C53.9916 41.8424 55.5141 41.9924 56.8978 42.5655C58.2814 43.1386 59.464 44.1092 60.2961 45.3544C61.1281 46.5997 61.5722 48.0637 61.5722 49.5613C61.5722 51.5696 60.7744 53.4956 59.3544 54.9157C57.9343 56.3358 56.0083 57.1335 54 57.1335ZM76.7167 59.0266C76.7167 59.5287 76.5172 60.0102 76.1622 60.3652C75.8072 60.7202 75.3257 60.9197 74.8236 60.9197C74.3216 60.9197 73.84 60.7202 73.485 60.3652C73.13 60.0102 72.9306 59.5287 72.9306 59.0266V43.8821C72.9306 43.3801 73.13 42.8986 73.485 42.5435C73.84 42.1885 74.3216 41.9891 74.8236 41.9891C75.3257 41.9891 75.8072 42.1885 76.1622 42.5435C76.5172 42.8986 76.7167 43.3801 76.7167 43.8821V59.0266Z" fill="white"/>
<defs>
<filter id="filter0_f_281_43" x="0" y="0.193848" width="108" height="97.5918" filterUnits="userSpaceOnUse" color-interpolation-filters="sRGB">
<feFlood flood-opacity="0" result="BackgroundImageFix"/>
<feBlend mode="normal" in="SourceGraphic" in2="BackgroundImageFix" result="shape"/>
<feGaussianBlur stdDeviation="2" result="effect1_foregroundBlur_281_43"/>
</filter>
</defs>
</svg>
