<svg width="245" height="25" viewBox="0 0 245 25" fill="none" xmlns="http://www.w3.org/2000/svg">
<path d="M97.404 20V6.77H100.32C101.472 6.77 102.396 6.938 103.092 7.274C103.788 7.61 104.292 8.078 104.604 8.678C104.916 9.266 105.072 9.944 105.072 10.712C105.072 12.116 104.664 13.202 103.848 13.97C103.032 14.726 101.796 15.104 100.14 15.104H99.438V20H97.404ZM99.438 13.322H100.194C100.986 13.322 101.586 13.196 101.994 12.944C102.402 12.692 102.678 12.38 102.822 12.008C102.966 11.636 103.038 11.276 103.038 10.928C103.038 10.508 102.96 10.118 102.804 9.758C102.648 9.398 102.378 9.104 101.994 8.876C101.61 8.648 101.07 8.534 100.374 8.534H99.438V13.322ZM112.949 20V6.77H115.955C116.627 6.77 117.275 6.836 117.899 6.968C118.535 7.1 119.099 7.322 119.591 7.634C120.083 7.946 120.473 8.36 120.761 8.876C121.049 9.392 121.193 10.028 121.193 10.784C121.193 11.66 120.989 12.422 120.581 13.07C120.173 13.718 119.555 14.216 118.727 14.564L121.877 20H119.555L116.891 14.996C116.687 15.008 116.435 15.02 116.135 15.032C115.847 15.032 115.607 15.032 115.415 15.032H114.911V20H112.949ZM114.911 13.394H116.189C116.849 13.394 117.377 13.31 117.773 13.142C118.181 12.974 118.493 12.764 118.709 12.512C118.925 12.248 119.069 11.966 119.141 11.666C119.225 11.354 119.267 11.066 119.267 10.802C119.267 10.214 119.129 9.752 118.853 9.416C118.589 9.068 118.217 8.822 117.737 8.678C117.269 8.522 116.729 8.444 116.117 8.444H114.911V13.394ZM135.826 20.18C134.926 20.18 134.074 20.024 133.27 19.712C132.478 19.4 131.776 18.95 131.164 18.362C130.552 17.762 130.066 17.042 129.706 16.202C129.358 15.362 129.184 14.414 129.184 13.358C129.184 12.29 129.358 11.336 129.706 10.496C130.066 9.656 130.552 8.942 131.164 8.354C131.788 7.766 132.496 7.322 133.288 7.022C134.092 6.71 134.938 6.554 135.826 6.554C136.714 6.554 137.554 6.71 138.346 7.022C139.15 7.322 139.858 7.766 140.47 8.354C141.094 8.942 141.58 9.656 141.928 10.496C142.288 11.336 142.468 12.29 142.468 13.358C142.468 14.414 142.288 15.362 141.928 16.202C141.58 17.042 141.1 17.762 140.488 18.362C139.876 18.95 139.168 19.4 138.364 19.712C137.572 20.024 136.726 20.18 135.826 20.18ZM135.826 18.362C136.642 18.362 137.392 18.17 138.076 17.786C138.76 17.402 139.306 16.844 139.714 16.112C140.122 15.368 140.326 14.456 140.326 13.376C140.326 12.284 140.122 11.372 139.714 10.64C139.306 9.896 138.76 9.338 138.076 8.966C137.404 8.582 136.654 8.39 135.826 8.39C134.998 8.39 134.242 8.582 133.558 8.966C132.886 9.338 132.346 9.896 131.938 10.64C131.53 11.372 131.326 12.284 131.326 13.376C131.326 14.456 131.536 15.368 131.956 16.112C132.376 16.844 132.928 17.402 133.612 17.786C134.296 18.17 135.034 18.362 135.826 18.362ZM150.648 20V6.77H154.014C155.094 6.77 155.946 6.878 156.57 7.094C157.206 7.31 157.674 7.586 157.974 7.922C158.286 8.258 158.49 8.612 158.586 8.984C158.682 9.356 158.73 9.704 158.73 10.028C158.73 10.376 158.676 10.742 158.568 11.126C158.472 11.498 158.304 11.846 158.064 12.17C157.824 12.482 157.494 12.734 157.074 12.926C157.974 13.154 158.61 13.55 158.982 14.114C159.366 14.666 159.558 15.284 159.558 15.968C159.558 16.436 159.504 16.91 159.396 17.39C159.288 17.87 159.06 18.308 158.712 18.704C158.376 19.088 157.866 19.4 157.182 19.64C156.498 19.88 155.58 20 154.428 20H150.648ZM152.628 12.386H154.338C154.962 12.386 155.442 12.284 155.778 12.08C156.114 11.864 156.348 11.588 156.48 11.252C156.624 10.916 156.696 10.562 156.696 10.19C156.696 9.878 156.624 9.596 156.48 9.344C156.348 9.08 156.102 8.87 155.742 8.714C155.394 8.558 154.896 8.48 154.248 8.48H152.628V12.386ZM152.628 18.308H154.698C155.31 18.308 155.796 18.236 156.156 18.092C156.528 17.948 156.81 17.762 157.002 17.534C157.194 17.306 157.32 17.06 157.38 16.796C157.44 16.52 157.47 16.25 157.47 15.986C157.47 15.362 157.26 14.876 156.84 14.528C156.42 14.168 155.76 13.988 154.86 13.988H152.628V18.308ZM167.845 20V6.77H169.879V18.2H173.677V20H167.845ZM181.193 20V6.77H186.989V8.534H183.191V12.188H186.251V13.988H183.191V18.218H187.583V20H181.193ZM202.324 20L199.138 13.826L198.31 11.954L197.932 13.826L196.708 20H194.71L197.446 6.77H197.662L201.298 13.916L202.378 16.31L203.458 13.916L207.022 6.77H207.22L210.064 20H208.084L206.752 13.826L206.356 11.954L205.636 13.826L202.432 20H202.324ZM222.991 6.752H223.189L229.561 20H227.239L226.105 17.408H220.039L218.905 20H216.655L222.991 6.752ZM223.081 10.586L222.289 12.386L220.849 15.59H225.313L223.891 12.404L223.117 10.586H223.081ZM239.712 20.18C239.208 20.18 238.71 20.12 238.218 20C237.726 19.868 237.288 19.712 236.904 19.532C236.52 19.34 236.232 19.148 236.04 18.956L236.994 17.246C237.126 17.354 237.33 17.498 237.606 17.678C237.894 17.846 238.224 17.996 238.596 18.128C238.968 18.26 239.34 18.326 239.712 18.326C240.324 18.326 240.834 18.182 241.242 17.894C241.662 17.606 241.872 17.186 241.872 16.634C241.872 16.178 241.752 15.8 241.512 15.5C241.272 15.2 240.954 14.936 240.558 14.708C240.174 14.48 239.754 14.264 239.298 14.06C238.854 13.844 238.428 13.604 238.02 13.34C237.552 13.028 237.144 12.614 236.796 12.098C236.448 11.582 236.274 10.916 236.274 10.1C236.274 9.296 236.454 8.636 236.814 8.12C237.186 7.604 237.672 7.22 238.272 6.968C238.884 6.704 239.55 6.572 240.27 6.572C240.846 6.572 241.338 6.632 241.746 6.752C242.154 6.872 242.496 7.016 242.772 7.184C243.048 7.352 243.264 7.502 243.42 7.634L242.466 9.272C242.262 9.056 241.956 8.858 241.548 8.678C241.14 8.486 240.684 8.39 240.18 8.39C239.592 8.39 239.124 8.528 238.776 8.804C238.428 9.068 238.254 9.464 238.254 9.992C238.254 10.46 238.41 10.862 238.722 11.198C239.034 11.522 239.43 11.822 239.91 12.098C240.402 12.362 240.906 12.632 241.422 12.908C241.938 13.184 242.394 13.508 242.79 13.88C243.114 14.168 243.39 14.528 243.618 14.96C243.846 15.392 243.96 15.878 243.96 16.418C243.96 17.234 243.768 17.924 243.384 18.488C243.012 19.052 242.508 19.478 241.872 19.766C241.236 20.042 240.516 20.18 239.712 20.18Z" fill="#367F2D"/>
<rect y="10" width="72" height="2" fill="#367F2D"/>
</svg>
