<svg width="285" height="25" viewBox="0 0 285 25" fill="none" xmlns="http://www.w3.org/2000/svg">
<path d="M103.488 20.18C102.588 20.18 101.736 20.024 100.932 19.712C100.14 19.4 99.438 18.95 98.826 18.362C98.214 17.762 97.728 17.042 97.368 16.202C97.02 15.362 96.846 14.414 96.846 13.358C96.846 12.29 97.02 11.336 97.368 10.496C97.728 9.656 98.214 8.942 98.826 8.354C99.45 7.766 100.158 7.322 100.95 7.022C101.754 6.71 102.6 6.554 103.488 6.554C104.376 6.554 105.216 6.71 106.008 7.022C106.812 7.322 107.52 7.766 108.132 8.354C108.756 8.942 109.242 9.656 109.59 10.496C109.95 11.336 110.13 12.29 110.13 13.358C110.13 14.69 109.854 15.848 109.302 16.832C108.75 17.816 108.024 18.59 107.124 19.154L108.762 21.692H106.764L105.576 19.874C104.904 20.078 104.208 20.18 103.488 20.18ZM103.488 18.362C103.848 18.362 104.196 18.326 104.532 18.254L103.326 16.292H105.342L106.116 17.552C106.68 17.144 107.13 16.592 107.466 15.896C107.814 15.188 107.988 14.348 107.988 13.376C107.988 12.284 107.784 11.372 107.376 10.64C106.968 9.896 106.422 9.338 105.738 8.966C105.066 8.582 104.316 8.39 103.488 8.39C102.66 8.39 101.904 8.582 101.22 8.966C100.548 9.338 100.008 9.896 99.6 10.64C99.192 11.372 98.988 12.284 98.988 13.376C98.988 14.456 99.198 15.368 99.618 16.112C100.038 16.844 100.59 17.402 101.274 17.786C101.958 18.17 102.696 18.362 103.488 18.362ZM122.899 20.18C121.747 20.18 120.823 19.946 120.127 19.478C119.443 19.01 118.945 18.338 118.633 17.462C118.333 16.586 118.183 15.548 118.183 14.348V6.77H120.199V14.384C120.199 15.788 120.409 16.796 120.829 17.408C121.261 18.008 121.951 18.308 122.899 18.308C123.847 18.308 124.531 18.014 124.951 17.426C125.371 16.838 125.581 15.824 125.581 14.384V6.77H127.615V14.348C127.615 16.196 127.231 17.63 126.463 18.65C125.695 19.67 124.507 20.18 122.899 20.18ZM136.157 20V6.77H141.953V8.534H138.155V12.188H141.215V13.988H138.155V18.218H142.547V20H136.157ZM157.289 20L154.103 13.826L153.275 11.954L152.897 13.826L151.673 20H149.675L152.411 6.77H152.627L156.263 13.916L157.343 16.31L158.423 13.916L161.987 6.77H162.185L165.029 20H163.049L161.717 13.826L161.321 11.954L160.601 13.826L157.397 20H157.289ZM186.257 20.18C185.753 20.18 185.255 20.12 184.763 20C184.271 19.868 183.833 19.712 183.449 19.532C183.065 19.34 182.777 19.148 182.585 18.956L183.539 17.246C183.671 17.354 183.875 17.498 184.151 17.678C184.439 17.846 184.769 17.996 185.141 18.128C185.513 18.26 185.885 18.326 186.257 18.326C186.869 18.326 187.379 18.182 187.787 17.894C188.207 17.606 188.417 17.186 188.417 16.634C188.417 16.178 188.297 15.8 188.057 15.5C187.817 15.2 187.499 14.936 187.103 14.708C186.719 14.48 186.299 14.264 185.843 14.06C185.399 13.844 184.973 13.604 184.565 13.34C184.097 13.028 183.689 12.614 183.341 12.098C182.993 11.582 182.819 10.916 182.819 10.1C182.819 9.296 182.999 8.636 183.359 8.12C183.731 7.604 184.217 7.22 184.817 6.968C185.429 6.704 186.095 6.572 186.815 6.572C187.391 6.572 187.883 6.632 188.291 6.752C188.699 6.872 189.041 7.016 189.317 7.184C189.593 7.352 189.809 7.502 189.965 7.634L189.011 9.272C188.807 9.056 188.501 8.858 188.093 8.678C187.685 8.486 187.229 8.39 186.725 8.39C186.137 8.39 185.669 8.528 185.321 8.804C184.973 9.068 184.799 9.464 184.799 9.992C184.799 10.46 184.955 10.862 185.267 11.198C185.579 11.522 185.975 11.822 186.455 12.098C186.947 12.362 187.451 12.632 187.967 12.908C188.483 13.184 188.939 13.508 189.335 13.88C189.659 14.168 189.935 14.528 190.163 14.96C190.391 15.392 190.505 15.878 190.505 16.418C190.505 17.234 190.313 17.924 189.929 18.488C189.557 19.052 189.053 19.478 188.417 19.766C187.781 20.042 187.061 20.18 186.257 20.18ZM204.668 20.18C203.768 20.18 202.916 20.024 202.112 19.712C201.32 19.4 200.618 18.95 200.006 18.362C199.394 17.762 198.908 17.042 198.548 16.202C198.2 15.362 198.026 14.414 198.026 13.358C198.026 12.29 198.2 11.336 198.548 10.496C198.908 9.656 199.394 8.942 200.006 8.354C200.63 7.766 201.338 7.322 202.13 7.022C202.934 6.71 203.78 6.554 204.668 6.554C205.556 6.554 206.396 6.71 207.188 7.022C207.992 7.322 208.7 7.766 209.312 8.354C209.936 8.942 210.422 9.656 210.77 10.496C211.13 11.336 211.31 12.29 211.31 13.358C211.31 14.414 211.13 15.362 210.77 16.202C210.422 17.042 209.942 17.762 209.33 18.362C208.718 18.95 208.01 19.4 207.206 19.712C206.414 20.024 205.568 20.18 204.668 20.18ZM204.668 18.362C205.484 18.362 206.234 18.17 206.918 17.786C207.602 17.402 208.148 16.844 208.556 16.112C208.964 15.368 209.168 14.456 209.168 13.376C209.168 12.284 208.964 11.372 208.556 10.64C208.148 9.896 207.602 9.338 206.918 8.966C206.246 8.582 205.496 8.39 204.668 8.39C203.84 8.39 203.084 8.582 202.4 8.966C201.728 9.338 201.188 9.896 200.78 10.64C200.372 11.372 200.168 12.284 200.168 13.376C200.168 14.456 200.378 15.368 200.798 16.112C201.218 16.844 201.77 17.402 202.454 17.786C203.138 18.17 203.876 18.362 204.668 18.362ZM225.99 20L222.804 13.826L221.976 11.954L221.598 13.826L220.374 20H218.376L221.112 6.77H221.328L224.964 13.916L226.044 16.31L227.124 13.916L230.688 6.77H230.886L233.73 20H231.75L230.418 13.826L230.022 11.954L229.302 13.826L226.098 20H225.99ZM247.412 20.18C246.512 20.18 245.66 20.024 244.856 19.712C244.064 19.4 243.362 18.95 242.75 18.362C242.138 17.762 241.652 17.042 241.292 16.202C240.944 15.362 240.77 14.414 240.77 13.358C240.77 12.29 240.944 11.336 241.292 10.496C241.652 9.656 242.138 8.942 242.75 8.354C243.374 7.766 244.082 7.322 244.874 7.022C245.678 6.71 246.524 6.554 247.412 6.554C248.3 6.554 249.14 6.71 249.932 7.022C250.736 7.322 251.444 7.766 252.056 8.354C252.68 8.942 253.166 9.656 253.514 10.496C253.874 11.336 254.054 12.29 254.054 13.358C254.054 14.414 253.874 15.362 253.514 16.202C253.166 17.042 252.686 17.762 252.074 18.362C251.462 18.95 250.754 19.4 249.95 19.712C249.158 20.024 248.312 20.18 247.412 20.18ZM247.412 18.362C248.228 18.362 248.978 18.17 249.662 17.786C250.346 17.402 250.892 16.844 251.3 16.112C251.708 15.368 251.912 14.456 251.912 13.376C251.912 12.284 251.708 11.372 251.3 10.64C250.892 9.896 250.346 9.338 249.662 8.966C248.99 8.582 248.24 8.39 247.412 8.39C246.584 8.39 245.828 8.582 245.144 8.966C244.472 9.338 243.932 9.896 243.524 10.64C243.116 11.372 242.912 12.284 242.912 13.376C242.912 14.456 243.122 15.368 243.542 16.112C243.962 16.844 244.514 17.402 245.198 17.786C245.882 18.17 246.62 18.362 247.412 18.362ZM265.223 20.18C264.719 20.18 264.221 20.12 263.729 20C263.237 19.868 262.799 19.712 262.415 19.532C262.031 19.34 261.743 19.148 261.551 18.956L262.505 17.246C262.637 17.354 262.841 17.498 263.117 17.678C263.405 17.846 263.735 17.996 264.107 18.128C264.479 18.26 264.851 18.326 265.223 18.326C265.835 18.326 266.345 18.182 266.753 17.894C267.173 17.606 267.383 17.186 267.383 16.634C267.383 16.178 267.263 15.8 267.023 15.5C266.783 15.2 266.465 14.936 266.069 14.708C265.685 14.48 265.265 14.264 264.809 14.06C264.365 13.844 263.939 13.604 263.531 13.34C263.063 13.028 262.655 12.614 262.307 12.098C261.959 11.582 261.785 10.916 261.785 10.1C261.785 9.296 261.965 8.636 262.325 8.12C262.697 7.604 263.183 7.22 263.783 6.968C264.395 6.704 265.061 6.572 265.781 6.572C266.357 6.572 266.849 6.632 267.257 6.752C267.665 6.872 268.007 7.016 268.283 7.184C268.559 7.352 268.775 7.502 268.931 7.634L267.977 9.272C267.773 9.056 267.467 8.858 267.059 8.678C266.651 8.486 266.195 8.39 265.691 8.39C265.103 8.39 264.635 8.528 264.287 8.804C263.939 9.068 263.765 9.464 263.765 9.992C263.765 10.46 263.921 10.862 264.233 11.198C264.545 11.522 264.941 11.822 265.421 12.098C265.913 12.362 266.417 12.632 266.933 12.908C267.449 13.184 267.905 13.508 268.301 13.88C268.625 14.168 268.901 14.528 269.129 14.96C269.357 15.392 269.471 15.878 269.471 16.418C269.471 17.234 269.279 17.924 268.895 18.488C268.523 19.052 268.019 19.478 267.383 19.766C266.747 20.042 266.027 20.18 265.223 20.18ZM278.768 15.914C278.768 15.914 278.75 15.836 278.714 15.68C278.678 15.512 278.66 15.314 278.66 15.086C278.66 14.582 278.768 14.156 278.984 13.808C279.2 13.46 279.464 13.154 279.776 12.89C280.1 12.614 280.424 12.35 280.748 12.098C281.072 11.834 281.342 11.546 281.558 11.234C281.774 10.91 281.882 10.52 281.882 10.064C281.882 9.596 281.714 9.2 281.378 8.876C281.054 8.54 280.574 8.372 279.938 8.372C279.542 8.372 279.206 8.456 278.93 8.624C278.654 8.78 278.438 8.96 278.282 9.164C278.126 9.356 278.03 9.518 277.994 9.65L276.194 8.75C276.242 8.666 276.332 8.51 276.464 8.282C276.608 8.042 276.824 7.79 277.112 7.526C277.4 7.262 277.778 7.034 278.246 6.842C278.726 6.65 279.326 6.554 280.046 6.554C280.838 6.554 281.534 6.704 282.134 7.004C282.734 7.304 283.196 7.706 283.52 8.21C283.856 8.714 284.024 9.272 284.024 9.884C284.024 10.52 283.91 11.054 283.682 11.486C283.454 11.918 283.172 12.284 282.836 12.584C282.5 12.872 282.158 13.142 281.81 13.394C281.474 13.646 281.192 13.904 280.964 14.168C280.736 14.432 280.622 14.756 280.622 15.14C280.622 15.332 280.628 15.512 280.64 15.68C280.652 15.836 280.658 15.914 280.658 15.914H278.768ZM279.884 20.18C279.512 20.18 279.2 20.06 278.948 19.82C278.708 19.568 278.588 19.262 278.588 18.902C278.588 18.53 278.708 18.224 278.948 17.984C279.2 17.732 279.512 17.606 279.884 17.606C280.244 17.606 280.55 17.732 280.802 17.984C281.054 18.224 281.18 18.53 281.18 18.902C281.18 19.262 281.054 19.568 280.802 19.82C280.55 20.06 280.244 20.18 279.884 20.18Z" fill="#367F2D"/>
<rect y="10" width="72" height="2" fill="#367F2D"/>
</svg>
