<svg width="214" height="25" viewBox="0 0 214 25" fill="none" xmlns="http://www.w3.org/2000/svg">
<path d="M100.446 20.18C99.942 20.18 99.444 20.12 98.952 20C98.46 19.868 98.022 19.712 97.638 19.532C97.254 19.34 96.966 19.148 96.774 18.956L97.728 17.246C97.86 17.354 98.064 17.498 98.34 17.678C98.628 17.846 98.958 17.996 99.33 18.128C99.702 18.26 100.074 18.326 100.446 18.326C101.058 18.326 101.568 18.182 101.976 17.894C102.396 17.606 102.606 17.186 102.606 16.634C102.606 16.178 102.486 15.8 102.246 15.5C102.006 15.2 101.688 14.936 101.292 14.708C100.908 14.48 100.488 14.264 100.032 14.06C99.588 13.844 99.162 13.604 98.754 13.34C98.286 13.028 97.878 12.614 97.53 12.098C97.182 11.582 97.008 10.916 97.008 10.1C97.008 9.296 97.188 8.636 97.548 8.12C97.92 7.604 98.406 7.22 99.006 6.968C99.618 6.704 100.284 6.572 101.004 6.572C101.58 6.572 102.072 6.632 102.48 6.752C102.888 6.872 103.23 7.016 103.506 7.184C103.782 7.352 103.998 7.502 104.154 7.634L103.2 9.272C102.996 9.056 102.69 8.858 102.282 8.678C101.874 8.486 101.418 8.39 100.914 8.39C100.326 8.39 99.858 8.528 99.51 8.804C99.162 9.068 98.988 9.464 98.988 9.992C98.988 10.46 99.144 10.862 99.456 11.198C99.768 11.522 100.164 11.822 100.644 12.098C101.136 12.362 101.64 12.632 102.156 12.908C102.672 13.184 103.128 13.508 103.524 13.88C103.848 14.168 104.124 14.528 104.352 14.96C104.58 15.392 104.694 15.878 104.694 16.418C104.694 17.234 104.502 17.924 104.118 18.488C103.746 19.052 103.242 19.478 102.606 19.766C101.97 20.042 101.25 20.18 100.446 20.18ZM118.857 20.18C117.957 20.18 117.105 20.024 116.301 19.712C115.509 19.4 114.807 18.95 114.195 18.362C113.583 17.762 113.097 17.042 112.737 16.202C112.389 15.362 112.215 14.414 112.215 13.358C112.215 12.29 112.389 11.336 112.737 10.496C113.097 9.656 113.583 8.942 114.195 8.354C114.819 7.766 115.527 7.322 116.319 7.022C117.123 6.71 117.969 6.554 118.857 6.554C119.745 6.554 120.585 6.71 121.377 7.022C122.181 7.322 122.889 7.766 123.501 8.354C124.125 8.942 124.611 9.656 124.959 10.496C125.319 11.336 125.499 12.29 125.499 13.358C125.499 14.414 125.319 15.362 124.959 16.202C124.611 17.042 124.131 17.762 123.519 18.362C122.907 18.95 122.199 19.4 121.395 19.712C120.603 20.024 119.757 20.18 118.857 20.18ZM118.857 18.362C119.673 18.362 120.423 18.17 121.107 17.786C121.791 17.402 122.337 16.844 122.745 16.112C123.153 15.368 123.357 14.456 123.357 13.376C123.357 12.284 123.153 11.372 122.745 10.64C122.337 9.896 121.791 9.338 121.107 8.966C120.435 8.582 119.685 8.39 118.857 8.39C118.029 8.39 117.273 8.582 116.589 8.966C115.917 9.338 115.377 9.896 114.969 10.64C114.561 11.372 114.357 12.284 114.357 13.376C114.357 14.456 114.567 15.368 114.987 16.112C115.407 16.844 115.959 17.402 116.643 17.786C117.327 18.17 118.065 18.362 118.857 18.362ZM133.679 20V6.77H135.713V18.2H139.511V20H133.679ZM151.212 20.18C150.06 20.18 149.136 19.946 148.44 19.478C147.756 19.01 147.258 18.338 146.946 17.462C146.646 16.586 146.496 15.548 146.496 14.348V6.77H148.512V14.384C148.512 15.788 148.722 16.796 149.142 17.408C149.574 18.008 150.264 18.308 151.212 18.308C152.16 18.308 152.844 18.014 153.264 17.426C153.684 16.838 153.894 15.824 153.894 14.384V6.77H155.928V14.348C155.928 16.196 155.544 17.63 154.776 18.65C154.008 19.67 152.82 20.18 151.212 20.18ZM170.588 20.126C169.532 20.126 168.59 19.946 167.762 19.586C166.946 19.226 166.25 18.734 165.674 18.11C165.11 17.474 164.678 16.754 164.378 15.95C164.09 15.134 163.946 14.27 163.946 13.358C163.946 12.362 164.108 11.45 164.432 10.622C164.768 9.794 165.236 9.08 165.836 8.48C166.436 7.868 167.15 7.394 167.978 7.058C168.806 6.722 169.718 6.554 170.714 6.554C171.362 6.554 171.938 6.62 172.442 6.752C172.946 6.884 173.36 7.034 173.684 7.202C174.008 7.358 174.212 7.484 174.296 7.58L173.414 9.38C173.09 9.092 172.688 8.858 172.208 8.678C171.74 8.498 171.188 8.408 170.552 8.408C169.724 8.408 168.974 8.612 168.302 9.02C167.642 9.428 167.114 10.004 166.718 10.748C166.334 11.492 166.142 12.374 166.142 13.394C166.142 14.294 166.31 15.116 166.646 15.86C166.982 16.592 167.474 17.18 168.122 17.624C168.782 18.068 169.58 18.29 170.516 18.29C171.032 18.29 171.536 18.224 172.028 18.092C172.532 17.948 173.048 17.714 173.576 17.39L174.17 19.1C174.014 19.244 173.75 19.4 173.378 19.568C173.006 19.724 172.574 19.856 172.082 19.964C171.602 20.072 171.104 20.126 170.588 20.126ZM169.364 24.572C169.184 24.572 169.004 24.56 168.824 24.536C168.644 24.512 168.5 24.494 168.392 24.482L168.554 22.808C168.722 22.832 168.89 22.844 169.058 22.844C169.538 22.844 169.868 22.766 170.048 22.61C170.24 22.466 170.336 22.274 170.336 22.034C170.336 21.842 170.282 21.662 170.174 21.494C170.066 21.338 169.958 21.17 169.85 20.99C169.742 20.81 169.688 20.6 169.688 20.36C169.688 20.156 169.706 20.024 169.742 19.964C169.79 19.892 169.82 19.844 169.832 19.82L170.336 19.712L171.11 19.82C171.11 20.036 171.188 20.24 171.344 20.432C171.512 20.624 171.674 20.846 171.83 21.098C171.998 21.362 172.082 21.716 172.082 22.16C172.082 23.036 171.824 23.654 171.308 24.014C170.804 24.386 170.156 24.572 169.364 24.572ZM186.909 6.752H187.107L193.479 20H191.157L190.023 17.408H183.957L182.823 20H180.573L186.909 6.752ZM186.999 10.586L186.207 12.386L184.767 15.59H189.231L187.809 12.404L187.035 10.586H186.999ZM188.205 5.312C187.833 5.312 187.533 5.258 187.305 5.15C187.089 5.03 186.897 4.898 186.729 4.754C186.561 4.598 186.387 4.466 186.207 4.358C186.039 4.238 185.817 4.178 185.541 4.178C185.313 4.178 185.139 4.256 185.019 4.412C184.911 4.568 184.773 4.832 184.605 5.204L183.831 3.998C183.927 3.602 184.167 3.254 184.551 2.954C184.935 2.642 185.355 2.486 185.811 2.486C186.207 2.486 186.525 2.546 186.765 2.666C187.005 2.774 187.203 2.906 187.359 3.062C187.515 3.218 187.671 3.356 187.827 3.476C187.983 3.584 188.175 3.638 188.403 3.638C188.643 3.638 188.859 3.578 189.051 3.458C189.243 3.326 189.399 3.11 189.519 2.81L190.203 3.854C190.143 4.298 189.909 4.652 189.501 4.916C189.093 5.18 188.661 5.312 188.205 5.312ZM206.039 20.18C205.139 20.18 204.287 20.024 203.483 19.712C202.691 19.4 201.989 18.95 201.377 18.362C200.765 17.762 200.279 17.042 199.919 16.202C199.571 15.362 199.397 14.414 199.397 13.358C199.397 12.29 199.571 11.336 199.919 10.496C200.279 9.656 200.765 8.942 201.377 8.354C202.001 7.766 202.709 7.322 203.501 7.022C204.305 6.71 205.151 6.554 206.039 6.554C206.927 6.554 207.767 6.71 208.559 7.022C209.363 7.322 210.071 7.766 210.683 8.354C211.307 8.942 211.793 9.656 212.141 10.496C212.501 11.336 212.681 12.29 212.681 13.358C212.681 14.414 212.501 15.362 212.141 16.202C211.793 17.042 211.313 17.762 210.701 18.362C210.089 18.95 209.381 19.4 208.577 19.712C207.785 20.024 206.939 20.18 206.039 20.18ZM206.039 18.362C206.855 18.362 207.605 18.17 208.289 17.786C208.973 17.402 209.519 16.844 209.927 16.112C210.335 15.368 210.539 14.456 210.539 13.376C210.539 12.284 210.335 11.372 209.927 10.64C209.519 9.896 208.973 9.338 208.289 8.966C207.617 8.582 206.867 8.39 206.039 8.39C205.211 8.39 204.455 8.582 203.771 8.966C203.099 9.338 202.559 9.896 202.151 10.64C201.743 11.372 201.539 12.284 201.539 13.376C201.539 14.456 201.749 15.368 202.169 16.112C202.589 16.844 203.141 17.402 203.825 17.786C204.509 18.17 205.247 18.362 206.039 18.362Z" fill="#367F2D"/>
<rect y="10" width="72" height="2" fill="#367F2D"/>
</svg>
